<svg xmlns="http://www.w3.org/2000/svg" width="480" height="280" viewBox="0 0 480 280"><rect width="480" height="280" rx="18" fill="#f0f3e8"/><circle cx="247" cy="139" r="115" fill="#e3ebd8"/><ellipse cx="241" cy="254" rx="173" ry="8" fill="#dbe4d0"/><rect x="55" y="104" width="113" height="73" rx="12" fill="#fffdf6"/><text x="74" y="135" fill="#21534a" font-size="15" font-family="Arial,sans-serif">INPUT</text><text x="82" y="159" fill="#21534a" font-size="20" font-family="Arial,sans-serif">"abc"</text><path d="M181 141h34m-10-8 10 8-10 8" fill="none" stroke="#86aa85" stroke-width="3" stroke-linecap="round" stroke-linejoin="round"/><path d="M270 91l50 50-50 50-50-50Z" fill="#e6b676"/><text x="244" y="146" fill="#21534a" font-size="16" font-family="Arial,sans-serif">Valid?</text><path d="M271 94V54h96" fill="none" stroke="#86aa85" stroke-width="3" stroke-linecap="round" stroke-linejoin="round"/><circle cx="388" cy="54" r="16" fill="#86aa85"/><path d="M381 54l5 5 9-10" fill="none" stroke="#fffdf6" stroke-width="3" stroke-linecap="round" stroke-linejoin="round"/><path d="M271 191v34h77" fill="none" stroke="#86aa85" stroke-width="3" stroke-linecap="round" stroke-linejoin="round"/><rect x="347" y="196" width="101" height="51" rx="12" fill="#21534a"/><text x="362" y="217" fill="#fffdf6" font-size="11" font-family="Arial,sans-serif">TRY AGAIN</text><text x="364" y="235" fill="#d7e7ab" font-size="14" font-family="Arial,sans-serif">recover</text></svg>