<svg xmlns="http://www.w3.org/2000/svg" width="480" height="280" viewBox="0 0 480 280"><rect width="480" height="280" rx="18" fill="#f0f3e8"/><circle cx="247" cy="139" r="115" fill="#e3ebd8"/><ellipse cx="241" cy="254" rx="173" ry="8" fill="#dbe4d0"/><rect x="46" y="48" width="114" height="103" rx="12" fill="#fffdf6"/><rect x="46" y="48" width="114" height="28" rx="10" fill="#21534a"/><rect x="46" y="64" width="114" height="12" rx="0" fill="#21534a"/><circle cx="61" cy="62" r="3" fill="#e6b676"/><circle cx="74" cy="62" r="3" fill="#d7e7ab"/><circle cx="87" cy="62" r="3" fill="#bad7d5"/><rect x="64" y="91" width="114" height="103" rx="12" fill="#fffdf6"/><rect x="64" y="91" width="114" height="28" rx="10" fill="#21534a"/><rect x="64" y="107" width="114" height="12" rx="0" fill="#21534a"/><circle cx="79" cy="105" r="3" fill="#e6b676"/><circle cx="92" cy="105" r="3" fill="#d7e7ab"/><circle cx="105" cy="105" r="3" fill="#bad7d5"/><path d="M78 137h86M78 154h57M78 171h72" fill="none" stroke="#bad7d5" stroke-width="4" stroke-linecap="round" stroke-linejoin="round"/><path d="M190 141h38m-10-8 10 8-10 8" fill="none" stroke="#86aa85" stroke-width="3" stroke-linecap="round" stroke-linejoin="round"/><path d="M238 94h75l-24 57v46h-27v-46Z" fill="#e6b676"/><rect x="332" y="67" width="113" height="139" rx="12" fill="#fffdf6"/><rect x="332" y="67" width="113" height="30" rx="9" fill="#21534a"/><rect x="332" y="87" width="113" height="10" rx="0" fill="#21534a"/><path d="M388.5 97v109M332 127h113M332 157h113" fill="none" stroke="#bad7d5" stroke-width="2" stroke-linecap="round" stroke-linejoin="round"/><text x="345" y="89" fill="#fffdf6" font-size="13" font-family="Arial,sans-serif">DATA</text><path d="M345 111h23M393 111h39M345 143h23M393 143h39M345 175h23M393 175h39" fill="none" stroke="#86aa85" stroke-width="3" stroke-linecap="round" stroke-linejoin="round"/><circle cx="236" cy="226" r="16" fill="#86aa85"/><path d="M229 226l5 5 9-10" fill="none" stroke="#fffdf6" stroke-width="3" stroke-linecap="round" stroke-linejoin="round"/><text x="259" y="231" fill="#21534a" font-size="14" font-family="Arial,sans-serif">Collect responsibly</text></svg>