<svg xmlns="http://www.w3.org/2000/svg" width="480" height="280" viewBox="0 0 480 280"><rect width="480" height="280" rx="18" fill="#f0f3e8"/><circle cx="247" cy="139" r="115" fill="#e3ebd8"/><ellipse cx="241" cy="254" rx="173" ry="8" fill="#dbe4d0"/><rect x="45" y="55" width="240" height="176" rx="12" fill="#fffdf6"/><path d="M68 77v129h193" fill="none" stroke="#bad7d5" stroke-width="3" stroke-linecap="round" stroke-linejoin="round"/><rect x="86" y="144" width="25" height="62" rx="4" fill="#21534a"/><rect x="127" y="103" width="25" height="103" rx="4" fill="#86aa85"/><rect x="168" y="126" width="25" height="80" rx="4" fill="#e6b676"/><rect x="209" y="80" width="25" height="126" rx="4" fill="#bad7d5"/><rect x="305" y="37" width="128" height="96" rx="12" fill="#fffdf6"/><path d="M323 114l22-31 22 12 24-33 24 8" fill="none" stroke="#21534a" stroke-width="4" stroke-linecap="round" stroke-linejoin="round"/><rect x="305" y="148" width="128" height="96" rx="12" fill="#fffdf6"/><circle cx="369" cy="195" r="32" fill="#86aa85"/><path d="M369 195v-32a32 32 0 0 1 32 32Z" fill="#e6b676"/><circle cx="369" cy="195" r="16" fill="#fffdf6"/></svg>